<svg preserveAspectRatio="xMidYMid meet" data-bbox="89.8 343 903.4 423.895" viewBox="89.8 343 903.4 423.895" height="1440" width="1440" xmlns="http://www.w3.org/2000/svg" data-type="shape" role="presentation" aria-hidden="true" aria-label="">
    <g>
        <path d="M91.6 347.2c-.3 2.4-.8 8.9-1.1 14.5l-.7 10.3h167.5l-.6 4.7c-.3 2.7-.9 8.6-1.3 13.2l-.7 8.3-5.2 2.4c-13.5 6.2-31.6 9.1-69 10.9-31.3 1.5-35.8 2.3-48.1 8-18.9 8.7-31.5 21.6-36 37-2.3 7.7-2.3 22.6.1 31.5 5.5 21 22.3 36.9 45 42.5 9.4 2.4 27.7 2.4 36.5 0 15.3-4 30.3-15.3 36.2-27.2 7.1-14.5 4.1-36.1-7.7-55.1l-2.6-4.2h9.9c11.1 0 20.8-2.1 31.2-6.9 5.7-2.5 6.5-2.7 6.8-1.3.1 1-1.3 24.3-3.2 51.8-2.4 34.4-3.2 51.1-2.6 53.3 3.4 12.1 14.7 21.5 34.8 29 5.3 2.1 12.6 4.5 16.2 5.5 3.6.9 7.4 2 8.4 2.3 1.1.3-1.9-3.3-6.6-8-5.7-5.7-9.6-10.6-11.6-14.7-5.9-11.8-6-8.2.8-98.5 3.3-45.1 6.3-82.6 6.5-83.3.3-.9 70.9-1.2 348.4-1.2h347.9l.6-4.8c.3-2.6.8-9.1 1.2-14.5l.6-9.7H92.1zm85.9 100.3c4.7 2.7 9.4 9 12 15.8 2.7 7.1 1.7 16.7-2.2 21.5-4.2 5.2-8.5 7.9-16.7 10.5-6.2 1.9-9.3 2.2-25.1 2.2-17.3 0-18.2-.1-22.5-2.5-8.4-4.7-10.6-11.1-7.5-21.7 2.1-7.2 6.3-12.4 14.5-17.8 15.8-10.5 37-14.1 47.5-8"></path>
        <path d="M395.8 454.7c-2.9 8.5-45.4 99.6-49 104.9-2.7 3.9-6 6-11 6.9-3.1.6-3.8 1.1-3.8 3.1v2.4h41v-2.4c0-1.9-.7-2.5-3.5-3-7.1-1.4-7.1-5.3-.1-21.6l5.3-12.5h48.5l5.6 13.8c5.4 13.1 5.6 14 4.1 16.5-.9 1.8-2.8 3-5.2 3.6-3 .8-3.7 1.4-3.5 3 .3 2 .9 2.1 22.1 2.4l21.7.2v-2.3c0-1.9-.8-2.5-4.9-3.6-2.8-.7-6-2.4-7.5-4s-12.9-25.5-27.9-58.7c-20.5-45.3-25.7-56-27.3-56.2-1.7-.2-2.4.9-4.6 7.5m14.2 45.9c4.3 10.4 8 19.6 8.2 20.2.2.9-4.3 1.2-18.9 1.2h-19.8c-.3 0 .1-1.5.9-3.3.7-1.7 5.1-12 9.6-22.7s8.5-19.9 8.7-20.4c.3-.5 1.2.7 2 2.5.8 1.9 5 12 9.3 22.5"></path>
        <path d="M514.5 448.2c-.2.7-3.8 25.6-8 55.3-4.1 29.7-8 55.3-8.7 56.9-1.3 3.2-7.5 6.5-12 6.6-2.3 0-2.8.4-2.8 2.5v2.5h39v-2.5c0-2.1-.5-2.5-3-2.5-3.1 0-7-3-7-5.4 0-2.6 8.1-73 8.5-73.4.1-.2 4 6.8 8.5 15.5 4.6 8.7 10 18.9 12 22.8 2 3.8 8.6 16.4 14.5 27.8 12.8 24.9 13 25 17.6 11.2 2.4-7.3 36.3-76 38.8-78.8.6-.6 8.4 56.7 9.9 72.2.6 6.3-.9 8.1-6.5 8.1-2.9 0-3.3.3-3.3 2.5v2.5l22.3-.2c21.4-.3 22.2-.4 22.2-2.3 0-1.6-.9-2.1-4.8-2.7-5.5-.8-9.4-2.9-10.8-6.1-.5-1.2-4.3-25.8-8.4-54.7-9.3-65.4-8.1-59-10.8-59-1.9 0-5.4 6.5-26.7 49-13.4 26.9-24.8 48.6-25.3 48.1s-12-22.4-25.7-48.7c-19.5-37.5-25.3-48-26.9-48.2-1.2-.2-2.3.3-2.6 1"></path>
        <path d="M736.7 448.2c-1.7 6.6-5.5 15.6-14.5 34.8-5.7 12.4-16.1 34.4-22.9 49-13.7 29.3-16.4 33.2-24.1 34.5-3.6.6-4.2 1-4.2 3.1v2.4h41v-2.4c0-1.8-.7-2.5-3.2-3-7.5-1.5-7.6-5.1-.5-21.7l5.3-12.4 24.1-.3 24.1-.2 5 12.2c6.9 16.7 6.9 17.1 3.8 20.2-1.4 1.5-3.7 2.6-5.1 2.6-2.2 0-2.6.4-2.3 2.2.3 2.3.3 2.3 22.1 2.6l21.7.2v-2.4c0-2.1-.6-2.5-4.2-3.1-7.8-1.3-9.9-4.6-26.3-41-36.2-80.2-35.2-78-37.4-78.3-1.2-.2-2.3.3-2.4 1m20.3 73.3c0 .6-6.8.9-19.6.7-14.8-.2-19.5-.6-19.1-1.5 4.3-10.3 18.8-44 19.3-44.8.6-1 19.4 43.2 19.4 45.6"></path>
        <path d="M830.2 452.7c.3 2.5.8 2.8 4.5 3.1 3.2.2 4.8 1 6.8 3.3l2.5 3.1v49.1c0 45.1-.2 49.4-1.8 51.3-2.3 2.9-5.4 4.4-9.1 4.4-2.6 0-3.1.4-3.1 2.5v2.5h44v-2.4c0-2-.6-2.4-4.2-2.9-3.1-.4-5.1-1.4-7-3.7l-2.8-3v-44h70v44l-2.7 3c-2 2.3-4 3.3-7 3.7-3.7.5-4.3.9-4.3 2.9v2.4h44v-2.4c0-2-.6-2.5-4.5-3-3.2-.5-5.1-1.5-7-3.8l-2.6-3 .3-49.4.3-49.4 2.6-2.6c1.6-1.6 4.1-2.8 6.7-3.1 3.6-.5 4.2-.9 4.2-2.9V450h-44v2.5c0 2 .5 2.5 2.6 2.5 3.9 0 9 2.8 10.3 5.6.7 1.6 1.1 10.2 1.1 24.4v22h-70.1l.3-23c.3-22.1.4-23 2.5-25.2 1.3-1.2 4-2.4 6.5-2.7 3.8-.5 4.3-.9 4.6-3.4l.3-2.7h-44.2z"></path>
        <path d="M140 677.5c0 .9.9 1.5 2.5 1.5 1.5 0 3.1.9 4 2.4 1.4 2.1 1.6 6.8 1.3 36.3-.3 33.3-.3 33.9-2.7 38.6-1.3 2.7-3.8 5.8-5.7 7-4.5 2.9-4.3 4.1.6 3.4 5.2-.7 10.4-4.6 13.3-10 2.1-4.1 2.2-5.3 2.7-40 .5-38 .5-37.6 5.3-37.7.9 0 1.7-.7 1.7-1.5 0-1.2-1.9-1.5-11.5-1.5s-11.5.3-11.5 1.5"></path>
        <path d="M243.5 686.1c-2.2.4-10.9.8-19.2.8-9.5.1-15.3.5-15.3 1.1 0 .5.9 1 1.9 1 4.8 0 5.1 1.4 5.1 28s-.3 28-5.1 28c-1 0-1.9.7-1.9 1.5 0 1.3 2.7 1.5 20.7 1.3l20.7-.3 3-7.8c1.6-4.3 2.5-8.1 2.1-8.5s-1.2.2-1.9 1.3c-.6 1.1-2.7 3.6-4.6 5.6-3 3.1-4.5 3.8-9 4.4-3 .3-7.7.5-10.5.3l-5-.3-.3-11.8-.3-11.8 9.3.3c8.8.3 9.2.4 9.8 2.7.3 1.4 1.1 2.6 1.8 2.9.9.3 1.2-1.8 1.2-7.7 0-6.5-.3-8.1-1.5-8.1-.9 0-1.5.9-1.5 2.4 0 3.1-1.5 3.6-11.1 3.6H224v-24h10.4c11.1 0 13.6.9 13.6 5.1 0 1 .5 1.9 1 1.9.6 0 1-2.8 1-6.5 0-7 .2-6.8-6.5-5.4"></path>
        <path d="M344.1 687.2c-.4 1.3-3.7 10.4-7.1 20.3s-6.7 19.1-7.3 20.5c-.8 2.2-1.7.1-7.3-16.5-3.5-10.4-6.4-19.5-6.4-20.3 0-.7 1.2-1.7 2.6-2.2 4.8-1.9 1.3-3-9.2-3-8.6 0-10.4.3-10.4 1.5 0 .8.9 1.5 1.9 1.5 3.9 0 6.1 3.9 15.1 27.5 12.5 32.6 12.1 31.5 13.5 31.5.7 0 1.4-1.8 1.7-4.3.6-5.1 12.7-39.9 13.8-39.2.3.2 4.4 10.1 9 22 4.6 11.8 8.9 21.5 9.6 21.5s1.5-1.8 1.9-4.1c1.1-6.6 16.3-51 18.1-53 1-1.1 2.8-1.9 4.1-1.9 1.4 0 2.3-.6 2.3-1.5 0-1.2-1.7-1.5-9.5-1.5s-9.5.3-9.5 1.5c0 .8.6 1.5 1.4 1.5s1.8.5 2.2 1.1c.6 1.1-9.6 36.9-10.6 36.9-.3 0-4.1-9.3-8.6-20.7-4.4-11.4-8.6-20.9-9.2-21.1-.7-.2-1.6.7-2.1 2"></path>
        <path d="M466.5 686.1c-2.2.4-10.9.8-19.2.8-8.4.1-15.3.5-15.3.9s1.5 1.2 3.3 1.7l3.2 1 .3 25.9c.3 27.4.1 28.6-4.4 28.6-1.5 0-2.4.6-2.4 1.5 0 1.3 3 1.5 20.9 1.5h20.8l2.8-7.5c3.1-8.6 2.5-11.5-1.2-5.7-4.1 6.3-7.3 7.7-18.3 7.7h-9.5l-.3-11.8-.3-11.7h18.3l1.1 3c1.9 5 2.7 3.4 2.7-5 0-4.7-.4-8-1-8-.5 0-1 .6-1 1.4 0 3.4-2.9 4.6-11.6 4.6H447v-24h10.4c11.1 0 13.6.9 13.6 5.2 0 1.1.5 1.8 1.3 1.6.7-.3 1.3-2.8 1.5-6.6.3-6.9.5-6.8-7.3-5.1"></path>
        <path d="M745.5 686c-2.2.5-10.9.9-19.2.9-8.4.1-15.3.5-15.3.9s1.5 1.2 3.3 1.7l3.2 1 .3 25.9c.3 27.4.1 28.6-4.4 28.6-1.5 0-2.4.6-2.4 1.5 0 1.3 2.7 1.5 20.7 1.3l20.8-.3 2.9-7.3c2-5 2.6-7.6 1.9-8.3-.8-.8-1.8.2-3.3 2.9-3.4 6.1-6.8 7.6-18 7.6l-9.5.1-.3-11.8-.3-11.8 9.3.3c8.8.3 9.2.4 9.8 2.7.3 1.4 1.1 2.6 1.8 2.9.9.3 1.2-1.8 1.2-7.8 0-6.1-.3-8.1-1.2-7.8-.7.3-1.4 1.4-1.6 2.6-.4 2.8-2.9 3.4-11.7 3l-7-.3-.3-11.8-.3-11.7h10.5c11.1 0 13.6.9 13.6 5.2 0 1.1.5 1.8 1.3 1.5.8-.2 1.2-2.4 1.2-6.3 0-6.6-.3-6.8-7-5.4"></path>
        <path d="M919.5 686.4c-5 2.3-8.7 6.9-9.2 11.8-.8 6.6 1.5 10.9 8.8 16.5 18.2 14 20.3 16.5 18.3 22.2-2.2 6.1-12.6 9.1-19.5 5.5-3.1-1.6-5.9-6.6-5.9-10.5 0-4.1-2.5-1.2-3.4 3.9-1.2 6.8.5 9.4 7.1 11.3 11.4 3.2 21.3.9 25.9-6 3.1-4.8 3.8-8.8 2.4-13.9-.9-3.7-2.4-5.3-12.2-13-6.2-4.8-12-9.5-13-10.5-2.4-2.3-2.4-8.1.1-10.6 5.9-5.9 18.9-3.7 19.1 3.1 0 1 .7 1.8 1.5 1.8 1.2 0 1.5-1.3 1.5-5.9v-5.8l-3.7-.7c-6.2-1-14.6-.6-17.8.8"></path>
        <path d="M526 687.5c0 .8.8 1.5 1.8 1.5 1.1 0 2.6.8 3.5 1.8 1.5 1.6 1.7 5 1.7 26.4 0 22.5-.2 24.6-1.8 26.1-1 1-2.6 1.7-3.5 1.7s-1.7.4-1.7 1 7.6 1 20.8 1h20.8l2.5-6.7c1.3-3.7 2.6-7.1 2.7-7.5.2-.4-.3-.8-1.1-.8s-2.4 1.5-3.5 3.4c-3.1 5.2-7.2 6.9-18 7.4l-9.2.4.2-26.3.3-26.4 3.3-1c5.9-1.7 2.8-3-8.1-3.3-9.1-.2-10.7 0-10.7 1.3"></path>
        <path d="M618.5 687.1c-.8 1.2-.8 1.2 3 2.5l3 .9v53l-3.2 1c-1.8.5-3.3 1.3-3.3 1.7 0 .5 9.5.7 21.1.6l21.1-.3 2.8-7c3.3-8.3 2.1-10.5-2.2-4-3.7 5.6-7.3 7-18.3 7h-9l-.3-24.9c-.2-22.1 0-25.1 1.4-26.8 1-1 2.5-1.8 3.6-1.8 1 0 1.8-.7 1.8-1.5 0-1.2-1.8-1.5-10.4-1.5-6.4 0-10.7.4-11.1 1.1"></path>
        <path d="M803.8 686.6c-1.4 1.4-.8 2.4 1.5 2.4 4.5 0 4.7.9 4.7 27.4 0 13.8-.4 25.6-.8 26.2-.4.7-1.8 1.4-3.1 1.5-1.4.2-2.6 1-2.9 1.6-.3 1 2.3 1.3 10.7 1.3 6.1 0 11.1-.4 11.1-.8 0-.5-1.5-1.5-3.2-2.3l-3.3-1.4-.3-12.3-.3-12.3 2.8.7c4.6 1.1 7 3.1 12.2 10.2 11.1 15.2 15.2 18.1 24.9 18.2 5.6 0 7-1.4 2.5-2.5-4.6-1.1-6.7-3-15.6-13.9-7.8-9.5-8.4-10.6-6.5-11.1 1.1-.4 3.8-2.3 5.9-4.2 8.9-8 7-21.2-3.8-26.4-4.3-2.1-6.5-2.4-20.3-2.7-8.5-.2-15.8-.1-16.2.4m30.9 6.1c8.3 3.9 8.2 17.8-.2 21.7-2 1-6 1.6-9.9 1.6H818v-25h6.6c4.1 0 7.9.6 10.1 1.7"></path>
    </g>
</svg>
